<?xml version="1.0" encoding="UTF-8" standalone="no"?>
<!-- Created with Inkscape (http://www.inkscape.org/) -->

<svg
   version="1.1"
   id="svg845"
   xml:space="preserve"
   width="12"
   height="12"
   xmlns:inkscape="http://www.inkscape.org/namespaces/inkscape"
   xmlns:sodipodi="http://sodipodi.sourceforge.net/DTD/sodipodi-0.dtd"
   xmlns="http://www.w3.org/2000/svg"
   xmlns:svg="http://www.w3.org/2000/svg"><defs
     id="defs849" /><sodipodi:namedview
     id="namedview847"
     pagecolor="#ffffff"
     bordercolor="#000000"
     borderopacity="0.25"
     inkscape:showpageshadow="2"
     inkscape:pageopacity="0.0"
     inkscape:pagecheckerboard="0"
     inkscape:deskcolor="#d1d1d1" /><inkscape:clipboard
     style="font-variation-settings:normal;opacity:1;vector-effect:none;fill:currentColor;fill-opacity:1;stroke:none;stroke-width:1;stroke-linecap:butt;stroke-linejoin:miter;stroke-miterlimit:4;stroke-dasharray:none;stroke-dashoffset:0;stroke-opacity:1;-inkscape-stroke:none;stop-color:#000000;stop-opacity:1"
     min="2,2"
     max="14,14"
     geom-min="2,2"
     geom-max="14,14" /><g
     id="g851"
     transform="translate(-2,-2)"><path
       style="color:#232629;fill:currentColor;fill-opacity:1;stroke:none"
       d="M 2.375,2 C 2.24647,2 2.12349,2.01355 2,2.03125 V 3 c 0.5522847,0 1,0.4477153 1,1 v 8 c 0,0.552285 -0.4477153,1 -1,1 v 0.96875 C 2.12349,13.98675 2.24647,14 2.375,14 h 1.125 3 3.75 C 12.3275,14 14,12.3275 14,10.25 14,8.59629 12.9177,7.21992 11.4375,6.71875 12.07059,6.24035 12.5,5.4832 12.5,4.625 12.5,3.17075 11.32925,2 9.875,2 H 6.5 3.5 Z M 6,3 h 3 c 0.5522847,0 1,0.8954305 1,2 0,1.1045695 -0.4477153,2 -1,2 H 6 Z M 6,8 H 6.5 8.75 9 C 9.0534726,8 9.1038355,8.0261011 9.15625,8.03125 10.186547,8.132461 11,9.1861289 11,10.5 11,11.880712 10.104569,13 9,13 H 6 Z"
       class="ColorScheme-Text"
       id="path4" /></g></svg>
