<?xml version="1.0" encoding="UTF-8" standalone="no"?>
<!-- Created with Inkscape (http://www.inkscape.org/) -->

<svg
   version="1.1"
   id="svg845"
   xml:space="preserve"
   width="12"
   height="12"
   xmlns:inkscape="http://www.inkscape.org/namespaces/inkscape"
   xmlns:sodipodi="http://sodipodi.sourceforge.net/DTD/sodipodi-0.dtd"
   xmlns="http://www.w3.org/2000/svg"
   xmlns:svg="http://www.w3.org/2000/svg"><defs
     id="defs849" /><sodipodi:namedview
     id="namedview847"
     pagecolor="#ffffff"
     bordercolor="#000000"
     borderopacity="0.25"
     inkscape:showpageshadow="2"
     inkscape:pageopacity="0.0"
     inkscape:pagecheckerboard="0"
     inkscape:deskcolor="#d1d1d1" /><inkscape:clipboard
     style="font-variation-settings:normal;opacity:1;vector-effect:none;fill:currentColor;fill-opacity:1;stroke:none;stroke-width:1;stroke-linecap:butt;stroke-linejoin:miter;stroke-miterlimit:4;stroke-dasharray:none;stroke-dashoffset:0;stroke-opacity:1;-inkscape-stroke:none;stop-color:#000000;stop-opacity:1"
     min="2,2"
     max="14,14"
     geom-min="2,2"
     geom-max="14,14" /><g
     id="g851"
     transform="translate(-2,-2)"><path
       style="color:#232629;fill:currentColor;fill-opacity:1;stroke:none"
       d="M 2,2 V 14 H 3 4 7 V 13 H 6 5 V 10 H 6 7 8 V 9 H 7 5 3.96875 v 4 H 3 V 3 h 1 1 v 3 1 h 2 4 V 6 3 h 0.28125 L 13,4.71875 V 5 7 h 1 V 4.28125 L 11.71875,2 H 11.6875 11 4 3 Z M 6,3 H 7.90625 V 6 H 6 Z m 6,5 -1,1 -1,1 -2,2 v 1 1 h 2 l 1,-1 1,-1 1,-1 1,-1 z m -0.310547,1.6894531 0.591797,0.5917969 -1.6875,1.6875 v 0.01563 L 9.3125,13.28125 8.71875,12.6875 Z"
       class="ColorScheme-Text"
       id="path4" /></g></svg>
